<?xml version="1.0" encoding="utf-8"?>
<!-- Generator: Adobe Illustrator 16.0.0, SVG Export Plug-In . SVG Version: 6.00 Build 0)  -->
<!DOCTYPE svg PUBLIC "-//W3C//DTD SVG 1.1//EN" "http://www.w3.org/Graphics/SVG/1.1/DTD/svg11.dtd">
<svg version="1.1" id="Layer_1" xmlns="http://www.w3.org/2000/svg" xmlns:xlink="http://www.w3.org/1999/xlink" x="0px" y="0px"
	 width="380px" height="396.995px" viewBox="0 0 380 396.995" enable-background="new 0 0 380 396.995" xml:space="preserve">
<g>
	<defs>
		<path id="SVGID_1_" d="M-41.219,183.776c0,117.758,95.462,213.219,213.219,213.219s213.219-95.461,213.219-213.219
			c0-117.757-95.462-213.218-213.219-213.218S-41.219,66.019-41.219,183.776"/>
	</defs>
	<clipPath id="SVGID_2_">
		<use xlink:href="#SVGID_1_"  overflow="visible"/>
	</clipPath>
	<path clip-path="url(#SVGID_2_)" fill="#50AC96" d="M342.451,183.76c0,0-11.653-10.682-19.422-9.064
		c-7.77,1.619-67.979,88.695-67.979,88.695l2.267,48.881l68.302-15.861C325.618,296.411,354.428,191.528,342.451,183.76"/>
	<path clip-path="url(#SVGID_2_)" fill="#E8BF55" d="M71.289,0.766c0,0,8.096,0,11.637,4.047
		C86.467,8.86,94.563,29.604,98.104,33.65c3.541,4.048,11.636,12.143,16.189,13.154c4.553,1.012,49.075,2.024,54.641,5.06
		c0,0,21.249-18.214,25.802-21.755c4.554-3.542,9.613-16.19,13.154-17.202c3.542-1.012,11.637-7.589,19.731,7.589
		c8.094,15.178,6.577,32.885,6.071,44.016c-0.506,11.13-4.555,21.755-4.555,21.755s7.59,8.6,10.625,18.213
		s3.541,35.415,3.541,35.415s16.19,43.004,20.743,54.135c4.555,11.131,3.036,49.074,2.024,60.711s-1.012,41.992,1.012,57.17
		c2.024,15.178,3.541,47.053-0.506,61.723c-4.047,14.672-140.142,34.404-173.026,30.863C60.665,400.954-11.683,355.42-11.683,355.42
		s11.889-50.34,20.236-58.688c8.349-8.348,6.578-8.6,6.578-8.6s-11.131-18.215-10.625-29.85
		c0.506-11.637,11.131-28.838,11.131-28.838S1.472,201.112,0.966,177.84c-0.507-23.273,10.118-58.182,15.178-70.324
		c5.059-12.143,6.576-24.791,19.73-30.356C49.028,71.595,66.23,57.429,66.23,57.429s6.576-22.261,4.047-31.368
		C67.748,16.956,66.23,7.342,71.289,0.766"/>
	<path clip-path="url(#SVGID_2_)" fill="#CE7B2F" d="M105.692,46.805c0,0-17.707-1.012-25.296,4.553
		c-7.59,5.566-7.59-6.071-6.071-7.083c1.517-1.012,15.683,3.542,11.13-2.529c-4.553-6.071-3.036-22.767-6.577-26.308
		c-3.542-3.542-7.589-10.625-4.553-12.649c3.035-2.023,9.106,5.565,13.66,14.672C92.538,26.568,96.079,42.252,105.692,46.805"/>
	<path clip-path="url(#SVGID_2_)" fill="#9E6844" d="M198.277,61.477l18.213-7.589c0,0,3.036,7.589-1.012,17.708
		c-4.048,10.118-6.577,22.26-16.695,21.754c-10.119-0.506-14.166-9.612-8.602-14.671c5.565-5.06,22.261-16.696,22.261-16.696
		S196.759,70.078,198.277,61.477"/>
	<path clip-path="url(#SVGID_2_)" fill="#CE7B2F" d="M160.332,58.441c0,0,2.53,10.625,8.602,12.142
		c6.07,1.518,8.095,7.589,9.105,10.625c1.012,3.035,8.602,11.636,20.743,17.707c12.144,6.071,22.768,24.791,25.297,30.862
		s4.047,11.13,4.047,11.13s0.507-28.838,0.507-35.415c0-6.577-5.565-9.106-11.637-10.624c-6.07-1.518-22.767-5.565-24.791-9.107
		c-2.022-3.541,22.768-24.79,22.768-24.79s-29.345,18.213-31.873,11.13c-2.53-7.083,13.153-31.873,13.153-31.873
		s-16.696,26.814-23.272,24.79C166.403,62.994,162.356,62.488,160.332,58.441"/>
	<path clip-path="url(#SVGID_2_)" fill="#CE7B2F" d="M218.514,22.014l-0.506-8.095c0,0,8.095-1.012,10.119,21.249
		c2.023,22.261,1.517,40.98,1.517,40.98s0-26.308-4.553-30.861C220.538,40.733,216.49,26.062,218.514,22.014"/>
	<path clip-path="url(#SVGID_2_)" fill="#FAF5E7" d="M122.388,153.049c0,0,18.72-6.07,24.79-2.023c0,0-0.505-12.143,6.577-16.695
		c7.083-4.555,35.921-7.083,48.57-2.023c12.647,5.059,30.354,17.201,20.742,43.51s-49.075,94.102-49.075,94.102
		s26.814-3.541,45.533-13.66c18.72-10.117,36.428-25.295,37.439,5.061s-1.519,44.521-12.144,54.641
		c-10.623,10.117-30.354,23.271-30.354,23.271s24.284-7.59,27.826,9.107c3.541,16.695,8.095,29.344-10.119,37.439
		c-18.213,8.094-89.549,28.332-124.964,24.789C71.795,407.026-1.058,375.153-6.118,366.551c-5.059-8.6,3.542-40.98,10.119-52.617
		c6.576-11.635,16.189-24.283,16.189-24.283S2.483,268.907,4.507,258.284c2.023-10.625,13.66-21.25,13.66-21.25
		s11.13,19.73,40.474,31.367c0,0-37.944-27.826-49.075-58.688c-11.13-30.861-5.564-59.699,3.036-81.96s12.648-24.285,17.707-26.309
		c5.06-2.023,9.613,1.012,9.107,8.601c-0.507,7.589-9.613,13.66-6.071,19.225c3.541,5.566,5.059,10.119,13.154,11.639
		c8.095,1.518,28.838,10.117,39.968,9.105c11.131-1.012,12.648,18.213,18.719,17.201
		C111.258,166.204,109.74,157.602,122.388,153.049"/>
	<path clip-path="url(#SVGID_2_)" fill="#F0E3B1" d="M102.656,100.939c0,0,7.59-13.66,20.237-14.672
		c12.647-1.012,19.731,11.13,20.743,16.19c1.012,5.059-14.166-1.012-24.79,6.577C108.222,116.624,104.681,115.611,102.656,100.939"
		/>
	<path clip-path="url(#SVGID_2_)" fill="#F0E3B1" d="M71.289,109.034c0,0,18.213-10.625,15.178-20.743
		c-3.035-10.119-12.647-16.19-20.236-10.624c-7.59,5.565,6.576,3.541,6.576,11.13C72.807,96.386,75.842,97.398,71.289,109.034"/>
	<path clip-path="url(#SVGID_2_)" fill="#E0A236" d="M96.08,94.868c0,0,6.07-19.225,16.189-23.779
		c10.118-4.553,29.343-1.011,29.343-1.011s-18.719-6.577-19.225-11.131c-0.507-4.553,7.589-9.613,7.589-9.613
		s-22.768,10.119-29.85,12.143c-7.084,2.024-3.035,4.553-3.035,14.166C97.092,85.255,93.043,91.832,96.08,94.868"/>
	<path clip-path="url(#SVGID_2_)" fill="#D6CEB8" d="M65.725,265.872c0,0,21.248,4.553,43.51-0.506
		c22.261-5.059,40.474-10.117,55.146-23.779c0,0-28.838,28.838-45.028,35.922c-16.188,7.082-33.391,15.178-33.391,15.178
		s9.107,17.707,18.213,18.719c9.107,1.012-12.142,5.566-19.73,0.506c-7.59-5.059-10.625,3.037-10.625,3.037l-12.142,25.295
		c0,0,4.048-29.85,0.507-33.391c-3.543-3.541,11.129-6.07,8.6-11.131c-2.529-5.059-36.427-21.248-36.427-21.248
		s20.657,8.949,30.861,1.012C69.771,271.942,65.725,265.872,65.725,265.872"/>
	<path clip-path="url(#SVGID_2_)" fill="#090907" d="M71.781,153.051c0,0-0.303,7.57-1.816,11.205
		c-1.515,3.633-15.444,12.416-19.685,13.627c-4.238,1.211-6.359,3.633-5.451,6.357c0.909,2.727,12.113,4.848,18.171,8.178
		c6.057,3.332,14.535,8.479,18.473,8.479c3.936,0,20.289-7.873,29.373-4.543c0,0-4.543,9.086-12.719,8.783
		s-33.613,8.176-39.064,6.662s-26.043-9.084-28.163-12.719s-4.239-10.6-4.239-10.6s12.113,2.727,12.718-0.605
		c0.606-3.33,1.516-12.719-3.936-16.051c-5.451-3.33-9.994-17.26-5.451-24.527c4.542-7.27,18.472-6.662,25.74-5.148
		S69.661,147.297,71.781,153.051"/>
	<path clip-path="url(#SVGID_2_)" fill="#BFC4AD" d="M62.696,152.143c0,0-13.323-3.938-17.564-3.332
		c-4.239,0.605-11.508-2.119-11.508-2.119s2.424-2.727,9.691-3.029C50.584,143.36,60.879,146.084,62.696,152.143"/>
	<path clip-path="url(#SVGID_2_)" fill="#0F0E0F" d="M106.909,129.43c0,0,9.993,8.781,20.896,8.176s21.5-8.176,23.318-13.627
		c0,0-9.086-15.444-20.896-13.93c-11.812,1.514-19.685,16.655-19.685,16.655S109.332,130.641,106.909,129.43"/>
	<path clip-path="url(#SVGID_2_)" fill="#FFFFFF" d="M118.417,124.887c0,0,1.211-8.781,9.993-11.507
		c8.781-2.726,16.353,7.267,17.262,9.69c0.908,2.422-3.634,8.479-8.177,9.992C132.953,134.577,120.234,137.303,118.417,124.887"/>
	<path clip-path="url(#SVGID_2_)" fill="#B59A5A" d="M127.199,131.852c0,0-4.543-8.176,2.725-16.656c0,0,3.332-3.027,8.782,1.817
		c5.45,4.847,6.057,6.663,4.846,8.782C142.34,127.916,138.102,134.88,127.199,131.852"/>
	<path clip-path="url(#SVGID_2_)" fill="#0F0E0F" d="M53.611,121.253c0,0,9.086-1.211,11.508-7.874
		c2.422-6.662,4.543-13.93-5.754-16.352c-10.295-2.423-11.205,3.634-11.205,3.634s0.606,3.936-1.514,6.965
		C44.526,110.655,45.436,118.225,53.611,121.253"/>
	<path clip-path="url(#SVGID_2_)" fill="#FFFFFF" d="M54.217,117.014c0,0-3.33,0.908-5.451-2.726
		c-2.119-3.634-2.423-8.177,1.211-11.205c3.635-3.028,8.48-3.634,11.812-2.726c3.331,0.909,5.148,5.451,2.423,10.297
		S59.365,116.711,54.217,117.014"/>
	<path clip-path="url(#SVGID_2_)" fill="#B59A5A" d="M53.611,101.267c0,0-3.33,2.12-3.33,6.359c0,4.24,1.211,8.48,3.937,9.389
		s6.358-0.606,8.782-5.148c2.422-4.542,2.422-11.205-2.727-11.81C55.125,99.45,53.611,101.267,53.611,101.267"/>
	<path clip-path="url(#SVGID_2_)" fill="#0B0B09" d="M139.918,125.19c0,2.51-2.034,4.542-4.543,4.542
		c-2.508,0-4.543-2.032-4.543-4.542c0-2.509,2.035-4.542,4.543-4.542C137.884,120.648,139.918,122.681,139.918,125.19"/>
	<path clip-path="url(#SVGID_2_)" fill="#0B0B09" d="M63.605,108.837c0,2.509-2.035,4.542-4.543,4.542s-4.543-2.033-4.543-4.542
		s2.035-4.542,4.543-4.542S63.605,106.329,63.605,108.837"/>
	<path clip-path="url(#SVGID_2_)" fill="#FFFFFF" d="M57.246,103.992c0,1.505-1.221,2.725-2.726,2.725
		c-1.506,0-2.726-1.22-2.726-2.725s1.22-2.725,2.726-2.725C56.025,101.267,57.246,102.487,57.246,103.992"/>
	<path clip-path="url(#SVGID_2_)" fill="#FFFFFF" d="M64.211,105.658c0,1.254-1.018,2.271-2.271,2.271
		c-1.255,0-2.271-1.017-2.271-2.271s1.017-2.271,2.271-2.271C63.193,103.387,64.211,104.404,64.211,105.658"/>
	<path clip-path="url(#SVGID_2_)" fill="#FFFFFF" d="M132.734,118.679c0,1.804-1.461,3.265-3.265,3.265
		c-1.803,0-3.265-1.461-3.265-3.265c0-1.803,1.462-3.265,3.265-3.265C131.273,115.415,132.734,116.876,132.734,118.679"/>
	<path clip-path="url(#SVGID_2_)" fill="#FFFFFF" d="M129.891,130.069c0,0.984-0.799,1.783-1.783,1.783
		c-0.985,0-1.784-0.799-1.784-1.783c0-0.985,0.799-1.784,1.784-1.784C129.092,128.285,129.891,129.083,129.891,130.069"/>
	<path clip-path="url(#SVGID_2_)" fill="#F4E2C3" d="M177.533,157.247c4.12,12.109,2.432,21.699,3.091,24.432
		c0.66,2.734,7.676,8.545,8.289,12.98c0.612,4.436-0.246,18.678,1.504,25.215c1.75,6.539,6.383,11.795,15.898,18.992
		c10.937,8.273,17.137,6.682,26.428,8.506s18.444,9.594,25.001,12.076c6.559,2.486,13.469,5.486,23.113-0.365
		c9.644-5.852,29.58-37.416,33.766-43.928c4.187-6.51,7.865-14.645,7.865-14.645s5.773,0.898,8.879-3.203
		c3.106-4.102,4.423-23.209,5.351-26.727c0.926-3.518,3.275-15.143,0.054-20.064s-6.062-7.072-6.062-7.072
		s-7.427-2.646-12.606,4.848c-5.181,7.494-9.978,17.762-9.978,17.762s-14.072-20.092-30.4-31.961
		c-16.328-11.87-51.985-36.89-68.464-33.485C192.782,104.012,164.223,118.125,177.533,157.247"/>
	<path clip-path="url(#SVGID_2_)" fill="#91D2C0" d="M266.704,269.866c13.057-5.803,21.259-21.033,23.664-27.438
		c2.403-6.404,9.348-5.592,12.181-12.561c2.833-6.971,23.095-26.973,28.111-30.953c5.017-3.982,5.656-19.504,5.656-19.504
		c4.563,1.898,10.6-0.199,13.494,9.775c2.896,9.973,13.436,22.18,27.94,35.611c14.505,13.43,12.563,26.855,21.768,36.717
		c9.204,9.861,1.082,26.162,3.978,36.137c2.895,9.975,8.64,16.771,8.64,16.771s1.56,7.627,13.085,21.469
		c11.525,13.844,1.03,22.123,0.423,30.557c-0.605,8.432,5.783,29.057,10.818,36.205c5.035,7.146,0.663,24.955,0.663,24.955
		s2.509,9.016,9.89,14.826c0,0-64.748,3.529-123.015-3.918c-58.268-7.443-107.147-67.33-107.147-67.33s48.557-55.354,45.319-70.244
		C262.172,300.942,252.137,276.34,266.704,269.866"/>
	<path clip-path="url(#SVGID_2_)" fill="#F4E2C3" d="M156.266,268.026l0.188-2.303c0,0-4.623-4.168-4.35-9.52
		s0.794-10.736,5.829-10.926c5.034-0.188,8.836,5.359,11.19,9.588c2.354,4.23,4.033,9.059,5.865,11.334
		c1.833,2.277,3.924,10.086,4.994,16.01c1.071,5.924,1.02,9.221,1.02,9.221s31.561,19.678,44.539,25.729
		c12.98,6.053,43.798,11.918,49.644,15.412c0,0,6.262-24.646,10.285-28.492c0,0,11.479-13.982,29.544-11.416
		c18.064,2.566,37.531,53.77,37.531,53.77s-19.046,25.146-25.269,36.885s-13.146,22.057-18.84,26.637
		c-5.693,4.582-7.242,9.855-28.757,2.453c-21.517-7.402-56.543-28.375-76.811-45.057c-20.267-16.686-47.212-37.758-47.212-37.758
		s-15.728-2.131-24.341-2.207c-8.611-0.076-15.018-2.48-15.018-2.48s-10.461,1.191-15.529,1.131
		c-5.068-0.059-10.376-1.855-11.354-5.262c-0.976-3.408,2.371-6.654,6.943-6.525c4.571,0.129,10.538-2.467,13.482-3.127
		c2.945-0.658,4.897-1.182,5.009-2.209c0.112-1.027-0.128-2.766-5.907-2.475c-5.779,0.293-12.576-1.299-18.176-1.537
		c-5.6-0.24-8.383-3.904-7.578-9.074c0.805-5.172,4.417-4.658,9.484-4.6c5.07,0.059,20.479,1.727,20.479,1.727l1.353-1.197
		c0,0-8.064-3.441-11.182-4.023c-3.115-0.582-12.363-1.582-14.238-2.336c-1.875-0.752-5.556-1.762-3.477-6.857
		c2.08-5.094,5.128-5.008,12.037-4.443c6.909,0.563,15.907,1.598,20.154,3.037l4.246,1.436l2.389-2.857c0,0-5.941-2.723-8.732-4.615
		c-2.793-1.891-9.848-9.014-9.848-9.014s-2.791-1.891-0.078-6.061c2.715-4.17,4.665-4.693,9.76-2.613
		c5.094,2.08,15.942,9.186,15.942,9.186s7.739,4.75,12.663,5.588C149.065,269.02,156.266,268.026,156.266,268.026"/>
	<path clip-path="url(#SVGID_2_)" fill="#85C1B1" d="M283.364,307.153c0,0-0.651-4.717,7.91-1.346
		c8.562,3.373,35.318,19.412,42.861,28.238c7.544,8.826,12.708,18.738,12.837,21.506l-3.459,4.271l5.549,3.535
		c0,0,14.186-9.043,20.22-18.479c6.035-9.436,19.482-20.146,19.644-31.809c0.161-11.66,9.074-7.578,6.454-15.564
		c-2.621-7.986-14.959-14.887-27.82-31.074s-32.957-31.629-46.406-28.254s-40.166,24.268-44.217,26.092
		c-4.049,1.824-2.908,8.244-2.908,8.244l12.525,11.934c0,0-6.394,3.16-6.557,7.482C279.835,296.254,283.364,307.153,283.364,307.153
		"/>
	<path clip-path="url(#SVGID_2_)" fill="#50AC96" d="M285.861,288.59c0,0,11.874-7.457,20.479-5.609
		c8.604,1.848,34.024,15.543,34.024,15.543s-28.512-19.594-33.966-20.611c-5.453-1.018-14.151,1.953-14.151,1.953
		s11.001-2.783,6.54-3.939c-4.461-1.154-16.618-1.248-16.618-1.248s6.2,8.254,4.386,9.77
		C284.739,285.963,289.028,285.877,285.861,288.59"/>
	<path clip-path="url(#SVGID_2_)" fill="#50AC96" d="M288.153,268.54c0,0,7.833-7.406,21.692-7.801
		c13.861-0.396,31.147,2.025,31.147,2.025l-1.532,1.729c0,0,16.148,10.674,22.33,15.133c6.183,4.461,13.229,13.355,13.006,15.41
		c-0.222,2.055-2.636,2.893-12.62-7.113c-9.983-10.008-12.244-19.057-23.221-21.59c-10.976-2.533-14.076-6.658-20.822-4.209
		s-18.714,7.393-18.714,7.393s7.971-6.414,3.997-5.867C299.445,264.198,289.78,269.327,288.153,268.54"/>
	<path clip-path="url(#SVGID_2_)" fill="#50AC96" d="M280.738,262.479c0,0,14.391-7.553,20.024-7.064
		c5.634,0.486,17.113,1.18,18.329-1.014c1.216-2.191-4.932-6.402-4.932-6.402s0.574,5.992-6.052,5.643
		C301.481,253.292,299.066,246.793,280.738,262.479"/>
	<path clip-path="url(#SVGID_2_)" fill="#2E2512" d="M228.495,179.116l7.757,1.207c0,0,12.875-9.369,31.119-7.332
		c0,0-2.921-4.658-12.389-3.604C245.514,170.44,231.105,174.202,228.495,179.116"/>
	<path clip-path="url(#SVGID_2_)" fill="#2E2512" d="M208.471,186.182c0,0-7.903-7.764-14.778-8.08s-11.96,3.168-11.96,3.168
		s5.026,1.584,10.839,1.541C198.385,182.766,202.965,181.122,208.471,186.182"/>
	<path clip-path="url(#SVGID_2_)" fill="#EBC98E" d="M212.932,194.674c0,0-4.109-7.783-12.295-8.424
		c-8.185-0.641-11.231,6.611-11.231,6.611s2.886,4.408,8.451,4.398C203.421,197.252,212.932,194.674,212.932,194.674"/>
	<path clip-path="url(#SVGID_2_)" fill="#EBC98E" d="M238.898,190.331c0,0-0.069-7.834,5.571-9.119
		c5.643-1.285,19.752-1.715,26.431,2.676c0,0-6.19,4.65-12.542,6.285C252.006,191.809,241.725,192.469,238.898,190.331"/>
	<path clip-path="url(#SVGID_2_)" fill="#FFFFFF" d="M197.593,186.764c0,0-3.663,3.807-3.383,4.91
		c0.278,1.104,2.284,5.521,7.55,5.049c5.264-0.473,10.516-1.961,10.516-1.961s-1.649-4.594-5.321-6.371
		S199.216,185.653,197.593,186.764"/>
</g>
<g>
	<defs>
		<path id="SVGID_3_" d="M197.592,186.764c0,0-3.661,3.807-3.383,4.91c0.28,1.104,2.285,5.521,7.55,5.049
			c5.266-0.473,10.517-1.961,10.517-1.961s-1.649-4.594-5.321-6.371c-2.591-1.254-5.378-2.102-7.365-2.102
			C198.76,186.29,198.07,186.436,197.592,186.764"/>
	</defs>
	<clipPath id="SVGID_4_">
		<use xlink:href="#SVGID_3_"  overflow="visible"/>
	</clipPath>
	<path clip-path="url(#SVGID_4_)" fill="#72682B" d="M211.686,189.706c0.403,2.922-1.916,5.658-5.182,6.109
		c-3.265,0.451-6.238-1.555-6.643-4.479c-0.403-2.922,1.916-5.656,5.181-6.107C208.308,184.778,211.281,186.782,211.686,189.706"/>
	<path clip-path="url(#SVGID_4_)" fill="#2E2512" d="M207.97,190.217c0.173,1.254-0.671,2.404-1.884,2.572
		c-1.212,0.168-2.336-0.713-2.509-1.965s0.67-2.404,1.883-2.572S207.796,188.965,207.97,190.217"/>
	<path clip-path="url(#SVGID_4_)" fill="#2E2512" d="M201.079,186.284l8.71,7.936l1.661-1.754
		C211.45,192.465,207.619,186.776,201.079,186.284"/>
	<path clip-path="url(#SVGID_4_)" fill="#FFFFFF" d="M202.332,188.268c0.085,0.619-0.331,1.188-0.93,1.271
		c-0.6,0.082-1.155-0.354-1.24-0.971c-0.085-0.619,0.331-1.189,0.93-1.271C201.691,187.213,202.247,187.649,202.332,188.268"/>
	<path clip-path="url(#SVGID_4_)" fill="#FFFFFF" d="M203.233,193.319c0.124,0.898-0.481,1.727-1.352,1.846s-1.678-0.512-1.802-1.41
		c-0.124-0.9,0.481-1.727,1.353-1.848C202.303,191.788,203.109,192.42,203.233,193.319"/>
</g>
<g>
	<defs>
		<path id="SVGID_5_" d="M-41.219,183.776c0,117.758,95.462,213.219,213.219,213.219s213.219-95.461,213.219-213.219
			c0-117.757-95.462-213.218-213.219-213.218S-41.219,66.019-41.219,183.776"/>
	</defs>
	<clipPath id="SVGID_6_">
		<use xlink:href="#SVGID_5_"  overflow="visible"/>
	</clipPath>
	<path clip-path="url(#SVGID_6_)" fill="#FFFFFF" d="M245.691,181.266c0,0-4.264,3.127-3.886,5.867
		c0.379,2.738-0.364,1.953-0.364,1.953s1.907,2.783,5.802,2.5c3.895-0.285,10.633-0.199,14.094-2.707
		c3.461-2.51,3.619-5.957,3.619-5.957s-4.857-3.012-11.401-2.615C247.01,180.704,245.691,181.266,245.691,181.266"/>
</g>
<g>
	<defs>
		<path id="SVGID_7_" d="M253.554,180.307c-6.544,0.396-7.861,0.959-7.861,0.959s-4.266,3.127-3.886,5.867
			c0.378,2.74-0.365,1.953-0.365,1.953s1.907,2.783,5.802,2.498c3.894-0.283,10.633-0.199,14.093-2.707
			c3.461-2.508,3.619-5.955,3.619-5.955s-4.276-2.65-10.209-2.65C254.355,180.272,253.958,180.284,253.554,180.307"/>
	</defs>
	<clipPath id="SVGID_8_">
		<use xlink:href="#SVGID_7_"  overflow="visible"/>
	</clipPath>
	<path clip-path="url(#SVGID_8_)" fill="#72682B" d="M260.902,182.973c0.445,3.232-2.119,6.258-5.73,6.756s-6.899-1.717-7.346-4.951
		c-0.446-3.23,2.119-6.256,5.729-6.754C257.167,177.524,260.456,179.741,260.902,182.973"/>
	<path clip-path="url(#SVGID_8_)" fill="#2E2512" d="M256.792,183.542c0.191,1.385-0.74,2.658-2.081,2.844
		c-1.342,0.186-2.583-0.789-2.775-2.174c-0.191-1.385,0.741-2.658,2.082-2.844S256.602,182.157,256.792,183.542"/>
	<path clip-path="url(#SVGID_8_)" fill="#FFFFFF" d="M259.061,182.506c0.138,0.996-0.531,1.91-1.495,2.043
		c-0.963,0.133-1.854-0.566-1.991-1.563c-0.138-0.992,0.531-1.906,1.495-2.041C258.032,180.813,258.924,181.512,259.061,182.506"/>
	<path clip-path="url(#SVGID_8_)" fill="#FFFFFF" d="M251.556,186.969c0.137,0.996-0.532,1.91-1.495,2.043
		c-0.964,0.133-1.855-0.566-1.992-1.563c-0.138-0.994,0.532-1.906,1.495-2.041C250.526,185.276,251.418,185.975,251.556,186.969"/>
</g>
<g>
	<defs>
		<path id="SVGID_9_" d="M-41.219,183.776c0,117.758,95.462,213.219,213.219,213.219s213.219-95.461,213.219-213.219
			c0-117.757-95.462-213.218-213.219-213.218S-41.219,66.019-41.219,183.776"/>
	</defs>
	<clipPath id="SVGID_10_">
		<use xlink:href="#SVGID_9_"  overflow="visible"/>
	</clipPath>
	<path clip-path="url(#SVGID_10_)" fill="#2E2512" d="M330.711,143.444c0,0,3.923-43.197,0.959-52.393
		c-2.966-9.195-5.242-29.784-25.261-39.732c0,0,13.125,2.99,19.75,8.008c0,0-18.06-22.366-36.546-21.226
		c-18.486,1.14-21.373,0.691-21.373,0.691s12.454-5.956,22.386-5.633c0,0-13.44-3.229-26.773,4.544c0,0-19.043-15.167-25.419-14.287
		c0,0,11.07,2.427,21.777,14.507c0,0-15.458-11.707-42.211,5.263c-26.753,16.971-37.754,25.269-42.445,38.346
		c-4.692,13.077-16.667,26.595-16.667,26.595s6.03-3.376,8.735-6.291c0,0-5.389,18.258-1.955,28.801c0,0-1.369-11.958,2.502-18.707
		c0,0-1.068,25.006,4.506,34.688c0,0-3.596-9.672,1.537-15.465c0,0-0.619,13.926,3.32,26.096c0,0-2.201-16.674-0.185-18.846
		c0,0,13.003,19.467,25.719,24.658c0,0-5.336-6.631-5.479-13.77c0,0,25.974,14.309,37.97,15.809c0,0-11.249-9.814-12.64-21.41
		c0,0,23.631,17.156,55.644,14.211c0,0-36.087,3.93-53.816-39.095c0,0,44.646,19.94,56.26,33.915l-10.317-13.732
		c0,0,19.229,12.713,24.608,22.707c5.38,9.992,5.545,18.813,5.545,18.813s5.677-3.1,7.527-7.986
		c1.853-4.887,4.893-17.938,11.139-23.012C325.755,144.438,324.718,143.961,330.711,143.444"/>
	<path clip-path="url(#SVGID_10_)" fill="#EBC98E" d="M217.798,207.424c0,0,0.833,3.988-0.262,9.371
		c-1.095,5.387-4.575,7.848,1.351,11.838s7.727,4.732,10.444,3.932c2.719-0.799,3.499-2.32,6.217-3.121
		c2.719-0.799-1.163-1.254-3.326-0.531c-2.164,0.725,2.805-2.225,5.197-1.281c2.393,0.941,3.399,2.076,6.021,0.582
		s3.431-4.859,3.259-6.107c0,0,0.818,2.857-0.382,5.428c-1.201,2.57-9.701,3.547-12.335,4.928c-2.635,1.381,1.381,5.91,1.381,5.91
		s0.161,2.803-3.973,3.148c0,0,4.82-5.186-3.192-7.582c-8.015-2.396-14.185-2.9-16.931-4.781c-2.745-1.879-1.108-6.398,1.644-9.377
		S218.034,211.303,217.798,207.424"/>
	<path clip-path="url(#SVGID_10_)" fill="#DBB962" d="M259.449,239.063c0,0-5.122,6.545-8.537,9.088s-4.32,4.176-7.38,3.844
		c-3.059-0.33-8.291-4.127-13.197-4.203c0,0,9.94-4.387,16.084-3.539C252.562,245.098,257.354,241.612,259.449,239.063"/>
	<path clip-path="url(#SVGID_10_)" fill="#DCA34C" d="M229.283,246.995c0,0,3.391,2.732,7.521-0.098
		c4.129-2.828,12.482-0.971,16.898-3.086s6.837-6.404,6.837-6.404l-3.556-1.205c0,0,2.925,0.727,0.963,2.881
		c-1.963,2.154-4.881,5.57-11.84,4.271s-8.488-1.465-12.031,0.154s-7.125,0.23-9.495-0.572c-2.371-0.803-5.314,2.428-5.314,2.428
		S226.383,246.454,229.283,246.995"/>
	<path clip-path="url(#SVGID_10_)" fill="#EBC98E" d="M332.761,150.788c0,0-2.785-2.439-6.928,3.027
		c-4.141,5.469-6.04,5.355-7.402,9.121c-1.363,3.766-1.401,6.219-2.938,7.373s-2.357,2.021-2.357,2.021s4.341,2.789,4.034,6.033
		c-0.305,3.242-2.566,7.322-1.751,7.775c0.815,0.451,1.363-3.768,4.27-4.545c2.904-0.777,9.182-0.326,9.329-3.359
		c0.146-3.033-0.244-9.947-2.901-11.465c-2.658-1.516-7.278-0.877-7.278-0.877s6.017-0.078,6.31,4.777
		c0.294,4.855,0.836,7.418-2.752,7.348c-3.587-0.07-6.844-3.197-6.303-6.098c0.541-2.898,2.669-6.582,4-9.215
		c1.332-2.633,6.563-9.758,7.794-7.666c1.229,2.09,4.176,15.242,4.762,19.492c0.587,4.25-0.483,7.41-2.783,8.482
		c-2.301,1.07-0.338,4.377-0.338,4.377s0.089-2.084,2.479-5.238s3.898-9.955,2.814-15.076
		C333.736,161.952,336.068,154.286,332.761,150.788"/>
</g>
<g display="none">
	<defs>
		<rect id="SVGID_11_" x="-120.65" y="-143.581" width="612" height="792"/>
	</defs>
	<clipPath id="SVGID_12_" display="inline">
		<use xlink:href="#SVGID_11_"  overflow="visible"/>
	</clipPath>
	<path display="inline" clip-path="url(#SVGID_12_)" fill="#F57E20" d="M84.31,493.996c-7.284,4.98-17.741,7.473-31.369,7.473
		c-3.432,0-7.354-0.541-11.772-1.621c-5.311-1.27-9.305-2.914-11.983-4.934h-0.705c-2.021,0-3.712-0.705-5.075-2.115
		s-2.044-3.125-2.044-5.146c0-4.934,0.222-12.324,0.669-22.17s0.67-17.236,0.67-22.17c0-5.498-0.105-13.711-0.316-24.637
		c-0.213-10.926-0.317-19.139-0.317-24.637c0-1.928,0.987-3.947,2.96-6.063c1.975-2.115,3.948-3.174,5.921-3.174
		c1.13,0,4.888,1.576,11.279,4.725c7.236,3.525,11.42,5.475,12.548,5.852c13.347,4.559,24.72,11.559,34.118,21.006
		c11.043,11.137,16.566,23.381,16.566,36.727c0,8.035-1.893,15.742-5.676,23.121S90.841,489.531,84.31,493.996 M69.507,419.416
		c-4.793-3.148-15.861-8.553-33.202-16.213l0.354,20.301l0.211,20.23l-1.129,38.49c0.328,0.143,0.822,0.447,1.481,0.916
		c4.135,2.773,9.351,4.16,15.648,4.16c10.715,0,18.516-1.646,23.403-4.934c4.558-3.104,8.188-7.273,10.892-12.514
		c2.701-5.24,4.053-10.703,4.053-16.389C91.218,440.21,83.98,428.861,69.507,419.416"/>
	<path display="inline" clip-path="url(#SVGID_12_)" fill="#F57E20" d="M137.331,498.648c-7.895,0-14.686-2.914-20.372-8.74
		c-6.344-6.484-9.682-15.201-10.01-26.152c-0.282-10.621,2.397-19.973,8.036-28.057c6.579-9.539,15.742-14.309,27.492-14.309
		c9.398,0,16.518,4.299,21.359,12.898c3.853,6.957,5.709,15.32,5.568,25.096c-0.141,10.432-2.867,19.34-8.178,26.717
		C155.212,494.466,147.246,498.648,137.331,498.648 M141.562,435.699c-6.909-0.047-12.291,3.242-16.144,9.869
		c-3.055,5.311-4.581,11.373-4.581,18.188s1.855,12.123,5.568,15.932c3.102,3.148,6.743,4.723,10.926,4.723
		c4.887,0,9.094-1.785,12.618-5.359c3.994-3.947,6.108-9.279,6.345-16C156.951,444.863,152.04,435.748,141.562,435.699"/>
	<path display="inline" clip-path="url(#SVGID_12_)" fill="#F57E20" d="M233.282,464.107l-1.621,23.686
		c-0.282,9.398-1.246,17.082-2.89,23.051c-2.115,7.613-5.498,13.229-10.151,16.848c-5.639,4.371-13.793,6.557-24.461,6.557
		c-6.25,0-11.49-0.424-15.719-1.27c-5.922-1.174-8.883-3.619-8.883-7.33c0-4.184,2.045-6.275,6.133-6.275
		c1.691,0,4.512,0.412,8.459,1.234c3.948,0.822,8.319,1.186,13.112,1.094c9.022-0.141,15.25-4.512,18.681-13.113
		c2.256-5.732,3.454-14.543,3.595-26.434c-2.538,4.699-5.559,8.225-9.059,10.574c-3.501,2.348-7.507,3.523-12.02,3.523
		c-8.506,0-15.426-2.9-20.76-8.705s-8.001-13.334-8.001-22.594c0-12.688,3.643-22.91,10.928-30.664
		c7.518-7.988,17.764-11.982,30.734-11.982c4.37,0,8.036,0.564,10.996,1.691c2.961,1.127,5.217,2.82,6.767,5.076
		c5.029,0.141,7.543,2.936,7.543,8.387c0,3.338-0.494,7.803-1.479,13.395C234.104,457.339,233.471,461.757,233.282,464.107
		 M210.654,433.583c-8.928,0-15.837,3.08-20.724,9.234c-4.371,5.547-6.557,12.596-6.557,21.148c0,6.814,1.293,11.938,3.877,15.367
		s6.461,5.146,11.631,5.146c4.747,0,9.352-2.68,13.817-8.037c4.041-4.934,6.344-9.82,6.908-14.662
		c0.987-5.074,2.045-13.041,3.172-23.896c-1.88-1.457-3.831-2.539-5.85-3.242C214.907,433.937,212.815,433.583,210.654,433.583"/>
	<path display="inline" clip-path="url(#SVGID_12_)" fill="#F57E20" d="M273.263,497.732c-10.621,0-19.221-2.656-25.799-7.965
		c-7.191-5.875-10.786-14.1-10.786-24.672c0-12.219,2.96-22.463,8.882-30.736c6.438-9.021,15.038-13.533,25.8-13.533
		c7.8,0,14.17,1.314,19.104,3.947c6.062,3.242,9.093,8.225,9.093,14.943c0,4.701-2.655,8.977-7.965,12.83
		c-2.351,1.691-7.331,4.324-14.944,7.895l-26.928,12.76c2.631,3.902,5.908,6.84,9.833,8.813c3.924,1.973,8.494,2.961,13.71,2.961
		c3.244,0,7.05-0.611,11.421-1.834c5.544-1.551,9.116-3.584,10.714-6.098c1.599-2.514,3.313-3.771,5.146-3.771
		c1.645,0,3.112,0.625,4.405,1.867c1.292,1.246,1.938,2.691,1.938,4.338c0,5.215-4.206,9.703-12.618,13.463
		C287.08,496.134,280.076,497.732,273.263,497.732 M271.359,433.513c-5.733,0-10.503,2.221-14.309,6.662
		c-3.808,4.439-6.651,11.127-8.53,20.055l21.641-10.291c8.506-4.135,14.567-7.73,18.188-10.787
		C284.306,435.394,278.644,433.513,271.359,433.513"/>
	<path display="inline" clip-path="url(#SVGID_12_)" fill="#8A5723" d="M49.983,527.195v5.785c0,0.969-0.475,1.455-1.424,1.455
		c-1.104,0-1.656-0.756-1.656-2.27c0-0.186,0.01-0.453,0.03-0.797c0.021-0.344,0.031-0.578,0.031-0.703l-0.015-3.549l-6.896-0.172
		c-1.43,0-2.42-0.049-2.971-0.141c-0.949-0.158-1.424-0.527-1.424-1.111c0-0.469,0.286-1.064,0.86-1.783l1.345-1.594l7.693-11.227
		c0.697-0.971,1.584-1.457,2.659-1.457c1.177,0,1.766,0.514,1.766,1.533v12.994c0.177-0.01,0.391-0.014,0.643-0.014
		c1.918,0,2.877,0.516,2.877,1.547c0,0.752-0.397,1.225-1.189,1.424C51.96,527.208,51.183,527.236,49.983,527.195 M46.95,513.964
		c-2.784,4.441-4.957,7.768-6.521,9.979l6.521,0.154V513.964z"/>
	<path display="inline" clip-path="url(#SVGID_12_)" fill="#8A5723" d="M71.75,513.48c-0.188,0-0.386-0.041-0.594-0.125
		c-1.293-0.479-3.003-0.719-5.129-0.719c-0.688,0-1.494,0.049-2.416,0.148s-1.958,0.254-3.104,0.463l-0.031,6.754
		c2.012-0.533,3.523-0.797,4.535-0.797c1.605,0,3.268,0.094,4.988,0.279c0.98,0.105,1.471,0.639,1.471,1.596
		c0,0.471-0.152,0.857-0.455,1.166c-0.301,0.307-0.678,0.461-1.125,0.461c-0.543,0-1.355-0.047-2.439-0.141
		c-1.085-0.094-1.896-0.141-2.439-0.141c-0.709,0-2.242,0.303-4.598,0.908l-0.14,10.756c0,0.449-0.146,0.828-0.439,1.135
		c-0.291,0.307-0.661,0.461-1.11,0.461c-0.447,0-0.82-0.154-1.116-0.461c-0.298-0.307-0.446-0.686-0.446-1.135
		c0-2.053,0.039-5.137,0.117-9.248c0.078-4.113,0.117-7.195,0.117-9.25c0-0.459-0.008-1.148-0.023-2.072
		c-0.016-0.922-0.023-1.613-0.023-2.07c0-0.459,0.144-0.846,0.43-1.158c0.287-0.313,0.66-0.469,1.117-0.469
		c0.345,0,0.652,0.094,0.924,0.281c1.293-0.229,2.455-0.398,3.486-0.508c1.033-0.109,1.939-0.164,2.722-0.164
		c1.198,0,2.569,0.172,4.112,0.516c2.096,0.479,3.144,1.104,3.144,1.877c0,0.418-0.136,0.785-0.407,1.109
		C72.573,513.298,72.198,513.48,71.75,513.48"/>
	<path display="inline" clip-path="url(#SVGID_12_)" fill="#8A5723" d="M88.278,535.06c-0.199,0-0.558-0.23-1.078-0.688
		c-0.471-0.428-0.82-0.809-1.049-1.143c-1.001,0.541-1.882,0.951-2.643,1.227c-0.762,0.277-1.396,0.416-1.907,0.416
		c-2.44,0-4.217-0.689-5.333-2.064c-1.052-1.293-1.579-3.273-1.579-5.941c0-2.523,0.868-4.682,2.604-6.475
		c1.734-1.793,3.807-2.689,6.215-2.689c0.906,0,1.923,0.234,3.05,0.703c1.417,0.586,2.126,1.289,2.126,2.111
		c0,0.281-0.104,0.533-0.313,0.75c-0.104,0.398-0.186,1.049-0.242,1.955c-0.059,0.906-0.092,2.068-0.102,3.486
		c-0.011,1.293,0.078,2.314,0.266,3.064c0.104,0.461,0.433,1.377,0.984,2.754c0.073,0.188,0.193,0.465,0.36,0.828l0.094,0.266
		c0,0.418-0.146,0.762-0.438,1.033C89.003,534.923,88.663,535.06,88.278,535.06 M85.025,524.193c0-0.449,0.028-0.938,0.087-1.463
		c0.057-0.525,0.143-1.088,0.258-1.68c-0.386-0.199-0.717-0.346-0.994-0.439c-0.275-0.094-0.498-0.141-0.664-0.141
		c-1.615,0-3.01,0.66-4.182,1.979c-1.174,1.318-1.76,2.838-1.76,4.559c0,1.709,0.303,2.99,0.906,3.846
		c0.605,0.855,1.512,1.283,2.721,1.283c1.001,0,1.85-0.182,2.549-0.549c0.375-0.197,0.902-0.594,1.579-1.188
		C85.192,527.638,85.025,525.568,85.025,524.193"/>
	<path display="inline" clip-path="url(#SVGID_12_)" fill="#8A5723" d="M112.313,535.326c-0.854,0-1.356-0.453-1.501-1.361
		c-0.188-1.146-0.375-2.762-0.563-4.848l-0.533-4.848c-0.104-0.719-0.281-1.422-0.531-2.109c-0.354-0.939-0.74-1.408-1.157-1.408
		c-0.386,0-1.104,0.328-2.157,0.986c-1,0.604-1.658,1.09-1.971,1.453c-0.011,0.98,0.016,1.961,0.078,2.939l0.469,4.176
		c0.199,1.648,0.297,3.008,0.297,4.08c0,0.459-0.143,0.838-0.429,1.133c-0.287,0.299-0.655,0.447-1.103,0.447
		c-0.448,0-0.816-0.148-1.103-0.447c-0.287-0.295-0.43-0.674-0.43-1.133c0-1.26-0.128-3.123-0.384-5.59
		c-0.256-2.465-0.383-4.328-0.383-5.59c0-1.105-0.156-1.965-0.469-2.58c-0.73,0.334-1.47,0.875-2.221,1.627l-1.846,2.063
		c-0.166,0.25-0.433,0.58-0.797,0.986c0,0.625-0.058,1.547-0.172,2.768c-0.115,1.221-0.173,2.121-0.173,2.705
		c0,0.313,0.05,0.75,0.149,1.314c0.099,0.563,0.148,0.969,0.148,1.219c0,0.426-0.158,0.787-0.478,1.078
		c-0.318,0.293-0.69,0.439-1.117,0.439c-1.179,0-1.769-1.342-1.769-4.02c0-0.625,0.059-1.559,0.174-2.799
		c0.113-1.24,0.172-2.174,0.172-2.799c0-0.553-0.051-1.381-0.148-2.486c-0.1-1.105-0.149-1.938-0.149-2.502
		c0-2.367,0.532-3.549,1.596-3.549c0.406,0,0.778,0.178,1.117,0.531s0.508,0.738,0.508,1.156c0,0.197-0.026,0.508-0.078,0.924
		s-0.077,0.734-0.077,0.953l0.03,1.641c0.543-1.115,1.34-2.123,2.394-3.025c1.053-0.9,1.949-1.352,2.688-1.352
		c1.638,0,2.763,0.813,3.378,2.439c0.573-0.762,1.256-1.332,2.048-1.713c0.794-0.381,1.7-0.57,2.722-0.57
		c1.74,0,2.929,0.938,3.564,2.814c0.126,0.375,0.339,1.84,0.643,4.395c0.291,1.793,0.666,4.779,1.125,8.959
		c0.031,0.418-0.109,0.771-0.422,1.063C113.141,535.179,112.761,535.326,112.313,535.326"/>
	<path display="inline" clip-path="url(#SVGID_12_)" fill="#8A5723" d="M121.022,526.927c0,0.627,0.018,1.563,0.054,2.809
		c0.037,1.244,0.056,2.18,0.056,2.805c0,0.461-0.141,0.836-0.423,1.127c-0.28,0.291-0.651,0.439-1.11,0.439
		c-0.448,0-0.815-0.148-1.102-0.439c-0.287-0.291-0.431-0.666-0.431-1.127c0-0.625-0.019-1.561-0.054-2.805
		c-0.037-1.246-0.056-2.182-0.056-2.809c0-0.979,0.052-2.201,0.156-3.664c0.104-1.467,0.157-2.689,0.157-3.67
		c0-0.467,0.143-0.848,0.43-1.141c0.287-0.291,0.654-0.438,1.102-0.438c0.448,0,0.816,0.146,1.104,0.438
		c0.286,0.293,0.429,0.674,0.429,1.141c0,0.98-0.052,2.203-0.155,3.67C121.074,524.726,121.022,525.949,121.022,526.927
		 M120.318,514.232c-0.5,0-0.933-0.178-1.298-0.533c-0.365-0.354-0.547-0.781-0.547-1.281c0-0.502,0.182-0.928,0.547-1.283
		c0.365-0.354,0.798-0.531,1.298-0.531c0.501,0,0.931,0.178,1.29,0.531c0.359,0.355,0.54,0.781,0.54,1.283
		c0,0.5-0.181,0.928-0.54,1.281C121.249,514.054,120.819,514.232,120.318,514.232"/>
	<path display="inline" clip-path="url(#SVGID_12_)" fill="#8A5723" d="M130.278,521.738l-0.233,7.77
		c0,0.824-0.042,2.033-0.125,3.629c-0.104,1.041-0.616,1.563-1.533,1.563c-1.021,0-1.532-0.531-1.532-1.594
		c0-1.262,0.058-3.156,0.172-5.684c0.115-2.527,0.172-4.424,0.172-5.684c0-1.648,0.027-3.531,0.078-5.654
		c0.053-2.121,0.078-4.004,0.078-5.652c0-1.041,0.512-1.564,1.532-1.564c1.033,0,1.548,0.523,1.548,1.564
		c0,1.648-0.025,3.531-0.078,5.652C130.305,518.207,130.278,520.089,130.278,521.738"/>
	<path display="inline" clip-path="url(#SVGID_12_)" fill="#8A5723" d="M148.715,520.08l-5.411,11.695
		c-1.334,2.848-2.355,5.229-3.064,7.146l-1.032,3.035c-0.271,0.75-0.74,1.125-1.407,1.125c-0.438,0-0.814-0.145-1.134-0.43
		c-0.317-0.287-0.476-0.645-0.476-1.07c0-1.043,1.125-4.061,3.377-9.055l-5.599-10.775l-0.703-1.141
		c-0.282-0.479-0.423-0.881-0.423-1.205c0-0.426,0.165-0.803,0.493-1.125c0.327-0.322,0.696-0.484,1.103-0.484
		c0.479,0,0.85,0.182,1.11,0.547c1.772,2.461,3.674,5.963,5.707,10.51l2.313-5.395c0.834-1.867,1.638-3.473,2.408-4.818
		c0.334-0.584,0.772-0.875,1.314-0.875c0.427,0,0.805,0.15,1.134,0.453c0.328,0.303,0.492,0.664,0.492,1.08
		C148.918,519.527,148.85,519.789,148.715,520.08"/>
	<path display="inline" clip-path="url(#SVGID_12_)" fill="#8A5723" d="M256.173,511.996c-0.156,0.438-0.234,1.078-0.234,1.924
		c0,0.311,0.01,0.775,0.03,1.391c0.021,0.615,0.031,1.078,0.031,1.393c0,1.041-0.091,2.596-0.273,4.66
		c-0.183,2.063-0.273,3.615-0.273,4.658c0,0.793,0.058,1.98,0.172,3.566c0.115,1.584,0.173,2.777,0.173,3.58
		c0,0.428-0.144,0.787-0.431,1.08c-0.286,0.291-0.643,0.438-1.07,0.438c-0.418,0-0.772-0.146-1.063-0.438
		c-0.292-0.293-0.439-0.652-0.439-1.08c0-0.803-0.057-1.996-0.171-3.58c-0.114-1.586-0.172-2.773-0.172-3.566
		c0-0.76,0.026-1.531,0.078-2.313c-1.782,0.029-3.988,0.295-6.614,0.797l-6.567,1.281c0,0.938-0.094,2.27-0.281,3.996
		c-0.188,1.725-0.282,3.061-0.282,4.01c0,0.428-0.143,0.789-0.43,1.088c-0.286,0.297-0.644,0.445-1.071,0.445
		c-0.427,0-0.784-0.148-1.07-0.445c-0.288-0.299-0.431-0.66-0.431-1.088c0-1.105,0.091-2.754,0.273-4.949
		c0.183-2.193,0.273-3.844,0.273-4.949c0-0.572-0.021-1.438-0.062-2.594c-0.042-1.158-0.063-2.029-0.063-2.613
		c0-0.822,0.053-2.061,0.156-3.713c0.104-1.652,0.157-2.891,0.157-3.713c0-0.438,0.143-0.803,0.429-1.096
		c0.287-0.293,0.645-0.438,1.071-0.438c0.428,0,0.785,0.145,1.071,0.438c0.287,0.293,0.431,0.658,0.431,1.096
		c0,0.832-0.054,2.08-0.165,3.744c-0.109,1.662-0.163,2.91-0.163,3.746l0.093,3.955l6.709-1.268c2.68-0.5,4.936-0.76,6.771-0.781
		c0.115-1.49,0.172-3.736,0.172-6.738c0-0.793,0.131-1.596,0.391-2.408c0.346-1.117,0.829-1.674,1.454-1.674
		c0.396,0,0.751,0.143,1.063,0.43s0.47,0.648,0.47,1.086C256.313,511.511,256.267,511.724,256.173,511.996"/>
	<path display="inline" clip-path="url(#SVGID_12_)" fill="#8A5723" d="M266.039,534.951c-1.751,0-3.257-0.646-4.519-1.939
		c-1.407-1.438-2.147-3.373-2.221-5.803c-0.062-2.355,0.531-4.428,1.782-6.221c1.46-2.117,3.493-3.176,6.098-3.176
		c2.086,0,3.665,0.955,4.739,2.861c0.854,1.543,1.267,3.4,1.235,5.568c-0.031,2.313-0.637,4.289-1.814,5.924
		C270.006,534.021,268.239,534.951,266.039,534.951 M266.978,520.988c-1.533-0.012-2.726,0.719-3.581,2.188
		c-0.678,1.178-1.017,2.523-1.017,4.033c0,1.514,0.412,2.689,1.236,3.535c0.688,0.697,1.494,1.047,2.423,1.047
		c1.085,0,2.018-0.395,2.799-1.188c0.886-0.875,1.354-2.059,1.408-3.549C270.391,523.019,269.302,520.998,266.978,520.988"/>
	<path display="inline" clip-path="url(#SVGID_12_)" fill="#8A5723" d="M289.776,524.896c0,0.75,0.005,1.875,0.016,3.377
		c0.01,1.502,0.016,2.627,0.016,3.377c0,0.23,0.019,0.578,0.054,1.049c0.037,0.469,0.056,0.818,0.056,1.047
		c0,0.449-0.151,0.816-0.453,1.104c-0.302,0.285-0.673,0.428-1.11,0.428c-0.803,0-1.313-0.494-1.533-1.482
		c-1.303,0.676-2.804,1.016-4.503,1.016c-1.365,0-2.497-0.303-3.393-0.908c-0.991-0.668-1.579-1.641-1.768-2.924
		c-0.406-2.762-0.609-5.223-0.609-7.381c0-1.428,0.157-3.053,0.469-4.879c0.146-0.906,0.641-1.359,1.485-1.359
		c0.447,0,0.824,0.145,1.127,0.43c0.301,0.287,0.452,0.654,0.452,1.104c0,0.479-0.075,1.244-0.227,2.297
		c-0.15,1.055-0.226,1.855-0.226,2.408c0,1.742,0.057,3.232,0.171,4.473c0.115,1.24,0.287,2.236,0.517,2.986
		c0.344,0.188,0.683,0.332,1.017,0.43c0.333,0.1,0.662,0.15,0.984,0.15c1.397,0,2.871-0.225,4.425-0.674l-0.015-3.174l-0.032-3.033
		c0-2.252,0.1-4.207,0.299-5.863c0.112-0.961,0.618-1.439,1.516-1.439c0.448,0,0.824,0.146,1.126,0.438s0.442,0.656,0.422,1.094
		L289.776,524.896z"/>
	<path display="inline" clip-path="url(#SVGID_12_)" fill="#8A5723" d="M304.225,521.988c-0.573,0-0.974-0.193-1.204-0.58
		c-0.155-0.27-0.291-0.834-0.405-1.688c-0.782,0.197-1.986,0.563-3.612,1.094c-1.679,0.668-2.523,1.492-2.533,2.471
		c0.313,0.115,0.62,0.199,0.922,0.25c2.398,0.428,4.182,1.018,5.349,1.768c1.698,1.094,2.549,2.68,2.549,4.754
		c0,1.697-0.735,2.98-2.205,3.846c-1.219,0.709-2.762,1.063-4.629,1.063c-1.365,0-2.668-0.229-3.909-0.688
		c-1.605-0.582-2.408-1.396-2.408-2.439c0-0.416,0.164-0.781,0.493-1.094c0.328-0.313,0.701-0.469,1.118-0.469
		c0.323,0,0.739,0.25,1.251,0.75c0.25,0.24,0.813,0.438,1.688,0.594c0.698,0.125,1.287,0.189,1.768,0.189
		c0.877,0,1.647-0.105,2.314-0.314c0.971-0.301,1.454-0.781,1.454-1.438c0-1.418-0.99-2.377-2.971-2.877l-1.627-0.359
		c-1.386-0.303-2.371-0.658-2.955-1.064c-0.844-0.584-1.266-1.465-1.266-2.643c0-2.178,1.025-3.732,3.079-4.66
		c0.626-0.281,1.627-0.617,3.002-1.008c1.377-0.391,2.362-0.721,2.956-0.994c0.428-0.186,0.892-0.281,1.393-0.281
		c0.448,0,0.814,0.146,1.102,0.439c0.286,0.291,0.43,0.672,0.43,1.141c0,0.303,0.065,0.744,0.195,1.33
		c0.131,0.582,0.196,1.025,0.196,1.328c0,0.469-0.144,0.85-0.43,1.143C305.041,521.839,304.674,521.988,304.225,521.988"/>
	<path display="inline" clip-path="url(#SVGID_12_)" fill="#8A5723" d="M316.563,534.748c-2.356,0-4.265-0.59-5.723-1.768
		c-1.595-1.303-2.392-3.127-2.392-5.473c0-2.711,0.655-4.982,1.97-6.818c1.428-2,3.336-3.002,5.722-3.002
		c1.73,0,3.145,0.291,4.238,0.877c1.344,0.717,2.017,1.822,2.017,3.313c0,1.043-0.589,1.992-1.766,2.848
		c-0.522,0.375-1.627,0.959-3.316,1.75l-5.973,2.83c0.583,0.867,1.312,1.518,2.182,1.957c0.869,0.438,1.885,0.654,3.041,0.654
		c0.719,0,1.563-0.135,2.533-0.404c1.23-0.346,2.022-0.795,2.376-1.354c0.355-0.557,0.736-0.838,1.143-0.838
		c0.364,0,0.69,0.139,0.977,0.416c0.287,0.275,0.43,0.596,0.43,0.961c0,1.156-0.933,2.152-2.799,2.986
		C319.627,534.392,318.074,534.748,316.563,534.748 M316.14,520.501c-1.271,0-2.33,0.492-3.174,1.479
		c-0.844,0.984-1.475,2.467-1.892,4.449l4.801-2.283c1.886-0.918,3.23-1.715,4.034-2.395
		C319.012,520.917,317.756,520.501,316.14,520.501"/>
</g>
</svg>
